<svg xmlns="http://www.w3.org/2000/svg" viewBox="0 0 512 512">
  <!-- "beamramp" — stress-beam variant painted by signed bending stress:
       tension red above the neutral axis, compression blue below, green at
       zero. Generated by scripts/gen-beam-variants.mjs; edit that, not this. -->
  <defs>
    <linearGradient id="bg" x1="0" y1="0" x2="0" y2="1">
      <stop offset="0" stop-color="#0d131a"/>
      <stop offset="1" stop-color="#080c10"/>
    </linearGradient>
    </defs>
  <rect width="512" height="512" fill="url(#bg)"/>
  <path d="M108 196H436" stroke="#3d4954" stroke-width="7" stroke-dasharray="4 22"
        stroke-linecap="round"/>
  <g stroke="#5a95d8" fill="#5a95d8">
    <path d="M436 128V268" stroke-width="13" stroke-linecap="round"/>
    <path d="M436 316 409 268h54z" stroke="none"/>
  </g>
  <path d="M60.8 162 L91.7 163.4 L121.8 165.9 L151.2 169.5 L179.8 174.4 L207.6 180.4 L234.6 187.6 L260.9 195.9 L286.3 205.5 L310.9 216.3 L334.7 228.2 L357.6 241.4 L379.7 255.8 L400.9 271.3 L421.2 288.1 L440.6 306 L459 325 L452.8 330.8 L434.6 312 L415.6 294.5 L395.7 278 L374.9 262.8 L353.2 248.7 L330.7 235.7 L307.3 224 L283.1 213.4 L258.1 204 L232.2 195.7 L205.6 188.6 L178.2 182.7 L150 177.9 L121 174.3 L91.2 171.8 L60.6 170.5 Z" fill="#d75742"/>
  <path d="M60.6 170.5 L91.2 171.8 L121 174.3 L150 177.9 L178.2 182.7 L205.6 188.6 L232.2 195.7 L258.1 204 L283.1 213.4 L307.3 224 L330.7 235.7 L353.2 248.7 L374.9 262.8 L395.7 278 L415.6 294.5 L434.6 312 L452.8 330.8 L446.5 336.5 L428.7 318.1 L410 300.9 L390.5 284.8 L370 269.8 L348.8 255.9 L326.6 243.2 L303.7 231.7 L279.9 221.3 L255.3 212 L229.9 203.9 L203.6 196.9 L176.6 191.1 L148.7 186.4 L120.1 182.8 L90.7 180.3 L60.4 179 Z" fill="#d87a3b"/>
  <path d="M60.4 179 L90.7 180.3 L120.1 182.8 L148.7 186.4 L176.6 191.1 L203.6 196.9 L229.9 203.9 L255.3 212 L279.9 221.3 L303.7 231.7 L326.6 243.2 L348.8 255.9 L370 269.8 L390.5 284.8 L410 300.9 L428.7 318.1 L446.5 336.5 L440.3 342.3 L422.8 324.2 L404.4 307.3 L385.2 291.5 L365.2 276.8 L344.3 263.2 L322.6 250.7 L300.1 239.4 L276.7 229.1 L252.5 220 L227.5 212 L201.6 205.2 L175 199.4 L147.5 194.8 L119.2 191.2 L90.1 188.8 L60.2 187.5 Z" fill="#b69648"/>
  <path d="M60.2 187.5 L90.1 188.8 L119.2 191.2 L147.5 194.8 L175 199.4 L201.6 205.2 L227.5 212 L252.5 220 L276.7 229.1 L300.1 239.4 L322.6 250.7 L344.3 263.2 L365.2 276.8 L385.2 291.5 L404.4 307.3 L422.8 324.2 L440.3 342.3 L434 348 L416.8 330.3 L398.8 313.7 L380 298.2 L360.4 283.8 L339.9 270.4 L318.6 258.2 L296.5 247 L273.5 237 L249.7 228 L225.1 220.2 L199.6 213.4 L173.4 207.8 L146.3 203.2 L118.3 199.7 L89.6 197.3 L60 196 Z" fill="#71aa67"/>
  <path d="M60 196 L89.6 197.3 L118.3 199.7 L146.3 203.2 L173.4 207.8 L199.6 213.4 L225.1 220.2 L249.7 228 L273.5 237 L296.5 247 L318.6 258.2 L339.9 270.4 L360.4 283.8 L380 298.2 L398.8 313.7 L416.8 330.3 L434 348 L427.7 353.7 L410.9 336.4 L393.3 320.1 L374.8 304.9 L355.5 290.7 L335.5 277.7 L314.6 265.7 L292.8 254.7 L270.3 244.9 L246.9 236.1 L222.7 228.3 L197.7 221.7 L171.8 216.1 L145 211.6 L117.5 208.1 L89 205.8 L59.8 204.5 Z" fill="#48ac85"/>
  <path d="M59.8 204.5 L89 205.8 L117.5 208.1 L145 211.6 L171.8 216.1 L197.7 221.7 L222.7 228.3 L246.9 236.1 L270.3 244.9 L292.8 254.7 L314.6 265.7 L335.5 277.7 L355.5 290.7 L374.8 304.9 L393.3 320.1 L410.9 336.4 L427.7 353.7 L421.5 359.5 L405 342.5 L387.7 326.5 L369.6 311.6 L350.7 297.7 L331 284.9 L310.5 273.2 L289.2 262.4 L267.1 252.7 L244.1 244.1 L220.3 236.5 L195.7 230 L170.2 224.4 L143.8 220 L116.6 216.6 L88.5 214.3 L59.6 213 Z" fill="#3a9ca0"/>
  <path d="M59.6 213 L88.5 214.3 L116.6 216.6 L143.8 220 L170.2 224.4 L195.7 230 L220.3 236.5 L244.1 244.1 L267.1 252.7 L289.2 262.4 L310.5 273.2 L331 284.9 L350.7 297.7 L369.6 311.6 L387.7 326.5 L405 342.5 L421.5 359.5 L415.2 365.2 L399 348.5 L382.1 332.9 L364.4 318.3 L345.9 304.7 L326.6 292.2 L306.5 280.6 L285.6 270.1 L263.9 260.6 L241.3 252.1 L217.9 244.7 L193.7 238.2 L168.6 232.8 L142.6 228.4 L115.7 225.1 L88 222.7 L59.4 221.5 Z" fill="#378cbb"/>
  <path d="M59.4 221.5 L88 222.7 L115.7 225.1 L142.6 228.4 L168.6 232.8 L193.7 238.2 L217.9 244.7 L241.3 252.1 L263.9 260.6 L285.6 270.1 L306.5 280.6 L326.6 292.2 L345.9 304.7 L364.4 318.3 L382.1 332.9 L399 348.5 L415.2 365.2 L409 371 L393.1 354.6 L376.5 339.3 L359.1 325 L341 311.7 L322.2 299.4 L302.5 288.1 L282 277.8 L260.7 268.5 L238.6 260.2 L215.6 252.8 L191.7 246.5 L167 241.1 L141.3 236.8 L114.8 233.5 L87.4 231.2 L59.2 230 Z" fill="#407dd7"/>
  <path d="M60 196 L89.6 197.3 L118.3 199.7 L146.3 203.2 L173.4 207.8 L199.6 213.4 L225.1 220.2 L249.7 228 L273.5 237 L296.5 247 L318.6 258.2 L339.9 270.4 L360.4 283.8 L380 298.2 L398.8 313.7 L416.8 330.3 L434 348 L454.3 370.1" fill="none" stroke="#dfe6ec"
        stroke-width="4.5" stroke-dasharray="20 9 5 9" stroke-linecap="round"/>
  <rect x="0" y="96" width="92" height="260" fill="#131b23"/>
  <g stroke="#46515c" stroke-width="6" stroke-linecap="round">
    <path d="M84 128 56 156M84 172 56 200M84 216 56 244M84 260 56 288M84 304 56 332"/>
  </g>
  <path d="M92 96V356" stroke="#6b7884" stroke-width="9" stroke-linecap="round"/>
</svg>
